<svg width="146" height="51" viewBox="0 0 146 51" fill="none" xmlns="http://www.w3.org/2000/svg">
<rect x="0.5" width="145" height="51" rx="8" fill="#2A3647"/>
<path d="M43.3274 33V17.7273H46.5565V30.3377H53.104V33H43.3274ZM60.3582 33.2237C59.1998 33.2237 58.1981 32.9776 57.3529 32.4854C56.5127 31.9883 55.8639 31.2972 55.4065 30.4123C54.9491 29.5224 54.7204 28.4908 54.7204 27.3175C54.7204 26.1342 54.9491 25.1001 55.4065 24.2152C55.8639 23.3253 56.5127 22.6342 57.3529 22.142C58.1981 21.6449 59.1998 21.3963 60.3582 21.3963C61.5166 21.3963 62.5159 21.6449 63.3561 22.142C64.2013 22.6342 64.8525 23.3253 65.3099 24.2152C65.7673 25.1001 65.996 26.1342 65.996 27.3175C65.996 28.4908 65.7673 29.5224 65.3099 30.4123C64.8525 31.2972 64.2013 31.9883 63.3561 32.4854C62.5159 32.9776 61.5166 33.2237 60.3582 33.2237ZM60.3731 30.7628C60.9001 30.7628 61.3401 30.6136 61.6931 30.3153C62.0461 30.0121 62.3121 29.5994 62.491 29.0774C62.675 28.5554 62.767 27.9613 62.767 27.2951C62.767 26.6289 62.675 26.0348 62.491 25.5128C62.3121 24.9908 62.0461 24.5781 61.6931 24.2749C61.3401 23.9716 60.9001 23.82 60.3731 23.82C59.8412 23.82 59.3937 23.9716 59.0308 24.2749C58.6729 24.5781 58.4019 24.9908 58.218 25.5128C58.039 26.0348 57.9495 26.6289 57.9495 27.2951C57.9495 27.9613 58.039 28.5554 58.218 29.0774C58.4019 29.5994 58.6729 30.0121 59.0308 30.3153C59.3937 30.6136 59.8412 30.7628 60.3731 30.7628ZM73.2222 37.5341C72.1931 37.5341 71.3106 37.3924 70.5748 37.109C69.844 36.8306 69.2623 36.4503 68.8298 35.968C68.3973 35.4858 68.1164 34.9439 67.9871 34.3423L70.9253 33.9471C71.0148 34.1758 71.1565 34.3896 71.3504 34.5884C71.5443 34.7873 71.8003 34.9464 72.1185 35.0657C72.4417 35.19 72.8344 35.2521 73.2968 35.2521C73.9878 35.2521 74.5571 35.0831 75.0045 34.745C75.4569 34.4119 75.6832 33.8526 75.6832 33.0671V30.9716H75.5489C75.4097 31.2898 75.2009 31.5906 74.9225 31.8739C74.6441 32.1573 74.2861 32.3885 73.8486 32.5675C73.4111 32.7464 72.8891 32.8359 72.2826 32.8359C71.4225 32.8359 70.6395 32.6371 69.9335 32.2393C69.2325 31.8366 68.6732 31.2227 68.2556 30.3974C67.843 29.5671 67.6366 28.5181 67.6366 27.2504C67.6366 25.9528 67.8479 24.869 68.2705 23.9989C68.6931 23.1289 69.2549 22.4776 69.9559 22.0451C70.6618 21.6126 71.4349 21.3963 72.2751 21.3963C72.9165 21.3963 73.4534 21.5057 73.8859 21.7244C74.3184 21.9382 74.6665 22.2067 74.93 22.5298C75.1984 22.848 75.4047 23.1612 75.5489 23.4695H75.6682V21.5455H78.8227V33.1119C78.8227 34.0863 78.5841 34.9016 78.1068 35.5579C77.6295 36.2141 76.9683 36.7063 76.1231 37.0344C75.2829 37.3675 74.316 37.5341 73.2222 37.5341ZM73.2893 30.4496C73.8014 30.4496 74.2339 30.3228 74.5869 30.0692C74.9449 29.8107 75.2183 29.4428 75.4072 28.9656C75.6011 28.4833 75.6981 27.9066 75.6981 27.2354C75.6981 26.5643 75.6036 25.9826 75.4147 25.4904C75.2258 24.9933 74.9523 24.608 74.5944 24.3345C74.2364 24.0611 73.8014 23.9244 73.2893 23.9244C72.7673 23.9244 72.3273 24.0661 71.9694 24.3494C71.6114 24.6278 71.3405 25.0156 71.1565 25.5128C70.9726 26.0099 70.8806 26.5842 70.8806 27.2354C70.8806 27.8967 70.9726 28.4684 71.1565 28.9506C71.3454 29.4279 71.6164 29.7983 71.9694 30.0618C72.3273 30.3203 72.7673 30.4496 73.2893 30.4496ZM86.2111 33V21.5455H89.388V33H86.2111ZM87.807 20.0689C87.3347 20.0689 86.9295 19.9123 86.5914 19.5991C86.2583 19.2809 86.0918 18.9006 86.0918 18.4581C86.0918 18.0206 86.2583 17.6452 86.5914 17.332C86.9295 17.0138 87.3347 16.8548 87.807 16.8548C88.2793 16.8548 88.682 17.0138 89.0151 17.332C89.3532 17.6452 89.5222 18.0206 89.5222 18.4581C89.5222 18.9006 89.3532 19.2809 89.0151 19.5991C88.682 19.9123 88.2793 20.0689 87.807 20.0689ZM95.1096 26.3778V33H91.9328V21.5455H94.9605V23.5664H95.0947C95.3483 22.9002 95.7733 22.3732 96.3699 21.9854C96.9665 21.5927 97.6899 21.3963 98.54 21.3963C99.3355 21.3963 100.029 21.5703 100.621 21.9183C101.212 22.2663 101.672 22.7635 102 23.4098C102.328 24.0511 102.492 24.8168 102.492 25.7067V33H99.3156V26.2734C99.3206 25.5724 99.1416 25.0256 98.7787 24.6328C98.4157 24.2351 97.9161 24.0362 97.2797 24.0362C96.8522 24.0362 96.4743 24.1282 96.1462 24.3121C95.8231 24.4961 95.5695 24.7646 95.3856 25.1175C95.2066 25.4656 95.1146 25.8857 95.1096 26.3778Z" fill="white"/>
</svg>
